<svg
        xmlns="http://www.w3.org/2000/svg"
        xmlns:xlink="http://www.w3.org/1999/xlink"
        width="1487px" height="800px">
    <defs>
        <linearGradient id="PSgrad_0" x1="0%" x2="100%" y1="0%" y2="0%">
            <stop offset="0%" stop-color="rgb(252,189,31)" stop-opacity="1" />
            <stop offset="100%" stop-color="rgb(237,69,129)" stop-opacity="1" />
        </linearGradient>

    </defs>
    <path fill-rule="evenodd"  opacity="0.902" fill="rgb(136, 142, 142)"
          d="M0.000,48.000 C0.000,48.000 254.997,-98.844 795.000,126.000 C1327.230,347.607 1487.000,121.000 1487.000,121.000 L1469.000,735.000 C1469.000,735.000 1166.020,775.845 832.000,790.000 C439.291,806.642 6.000,797.000 6.000,797.000 L0.000,48.000 Z"/>
    <path fill="url(#PSgrad_0)"
          d="M0.000,48.000 C0.000,48.000 254.997,-98.844 795.000,126.000 C1327.230,347.607 1487.000,121.000 1487.000,121.000 L1469.000,735.000 C1469.000,735.000 1166.020,775.845 832.000,790.000 C439.291,806.642 6.000,797.000 6.000,797.000 L0.000,48.000 Z"/>
</svg>