<svg
        xmlns="http://www.w3.org/2000/svg"
        xmlns:xlink="http://www.w3.org/1999/xlink"
        width="1474px" height="937px">
    <defs>
        <linearGradient id="PSgrad_0" x1="0%" x2="0%" y1="100%" y2="0%">
            <stop offset="0%" stop-color="rgb(16,192,198)" stop-opacity="1" />
            <stop offset="100%" stop-color="rgb(91,228,132)" stop-opacity="1" />
        </linearGradient>

    </defs>
    <path fill-rule="evenodd"  opacity="0.902" fill="rgb(136, 142, 142)"
          d="M1474.000,0.000 C1474.000,0.000 1217.977,89.671 996.000,402.000 C820.588,648.811 501.929,627.572 0.000,519.000 L3.000,798.000 C3.000,798.000 538.346,665.473 923.000,742.000 C1299.764,816.957 1474.000,937.000 1474.000,937.000 L1474.000,0.000 Z"/>
    <path fill="url(#PSgrad_0)"
          d="M1474.000,0.000 C1474.000,0.000 1217.977,89.671 996.000,402.000 C820.588,648.811 501.929,627.572 0.000,519.000 L3.000,798.000 C3.000,798.000 538.346,665.473 923.000,742.000 C1299.764,816.957 1474.000,937.000 1474.000,937.000 L1474.000,0.000 Z"/>
</svg>